<?xml version="1.0" encoding="utf-8"?>
<!-- Generator: Adobe Illustrator 16.0.0, SVG Export Plug-In . SVG Version: 6.00 Build 0)  -->
<!DOCTYPE svg PUBLIC "-//W3C//DTD SVG 1.1//EN" "http://www.w3.org/Graphics/SVG/1.1/DTD/svg11.dtd">
<svg version="1.1" id="Layer_1" xmlns="http://www.w3.org/2000/svg" xmlns:xlink="http://www.w3.org/1999/xlink" x="0px" y="0px"
	 width="400px" height="400px" viewBox="0 0 50 50" enable-background="new 0 0 50 50" xml:space="preserve">
<g>
	<rect y="28.98" width="14.898" height="0.222"/>
	<rect x="35.102" y="28.98" width="14.898" height="0.222"/>
</g>
<g>
	<path d="M2.745,26.98v-6.398h2.096c0.753,0,1.34,0.147,1.762,0.441c0.422,0.295,0.633,0.732,0.633,1.312
		c0,0.293-0.076,0.555-0.229,0.787s-0.375,0.406-0.668,0.523c0.398,0.073,0.699,0.246,0.901,0.519s0.303,0.59,0.303,0.954
		c0,0.612-0.202,1.076-0.606,1.391C6.533,26.823,5.96,26.98,5.219,26.98H2.745z M4.028,23.263h0.857c0.343,0,0.606-0.07,0.791-0.211
		s0.277-0.346,0.277-0.615c0-0.296-0.093-0.514-0.279-0.655s-0.463-0.211-0.833-0.211H4.028V23.263z M4.028,24.15v1.846h1.191
		c0.34,0,0.599-0.074,0.778-0.222s0.268-0.367,0.268-0.657c0-0.311-0.088-0.549-0.264-0.716s-0.441-0.25-0.795-0.25H4.028z"/>
	<path d="M9.851,26.98H8.568v-6.398h1.283V26.98z"/>
	<path d="M13.67,20.582h1.279v4.417c0,0.632-0.194,1.136-0.583,1.511s-0.887,0.562-1.496,0.562c-0.677,0-1.213-0.166-1.608-0.5
		s-0.586-0.819-0.571-1.455l0.009-0.026h1.248c0,0.34,0.083,0.591,0.25,0.754c0.167,0.162,0.391,0.243,0.672,0.243
		c0.234,0,0.426-0.097,0.576-0.292c0.149-0.194,0.224-0.46,0.224-0.797V20.582z"/>
	<path d="M17.489,26.98h-1.283v-6.398h1.283V26.98z"/>
	<path d="M25.799,24.862l0.009,0.026c0.012,0.683-0.196,1.217-0.624,1.604s-1.018,0.58-1.771,0.58c-0.768,0-1.387-0.246-1.859-0.74
		c-0.472-0.493-0.708-1.131-0.708-1.914v-1.27c0-0.779,0.23-1.417,0.69-1.914c0.46-0.496,1.063-0.745,1.811-0.745
		c0.779,0,1.389,0.19,1.828,0.571s0.653,0.917,0.642,1.608l-0.009,0.026H24.56c0-0.41-0.099-0.715-0.297-0.917
		c-0.197-0.2-0.503-0.301-0.916-0.301c-0.384,0-0.684,0.155-0.898,0.464c-0.216,0.309-0.323,0.708-0.323,1.197v1.279
		c0,0.492,0.113,0.894,0.341,1.205c0.227,0.311,0.542,0.465,0.947,0.465c0.384,0,0.67-0.1,0.859-0.301
		c0.189-0.2,0.284-0.509,0.284-0.925H25.799z"/>
	<path d="M28.009,25.996h2.865v0.984h-4.148v-6.398h1.283V25.996z"/>
	<path d="M36.904,24.357c0,0.788-0.248,1.438-0.742,1.949c-0.496,0.512-1.141,0.767-1.934,0.767c-0.791,0-1.434-0.256-1.926-0.769
		s-0.738-1.162-0.738-1.947v-1.151c0-0.782,0.246-1.43,0.736-1.945c0.491-0.514,1.13-0.771,1.918-0.771
		c0.794,0,1.44,0.257,1.938,0.771c0.498,0.515,0.747,1.163,0.747,1.945V24.357z M35.625,23.197c0-0.498-0.124-0.907-0.373-1.226
		s-0.594-0.479-1.033-0.479c-0.434,0-0.771,0.16-1.013,0.479c-0.241,0.319-0.362,0.728-0.362,1.226v1.16
		c0,0.507,0.121,0.92,0.365,1.239c0.242,0.32,0.582,0.479,1.02,0.479c0.439,0,0.781-0.159,1.027-0.479
		c0.246-0.319,0.369-0.732,0.369-1.239V23.197z"/>
	<path d="M42.379,21.571h-1.828v5.41h-1.283v-5.41h-1.801v-0.989h4.912V21.571z"/>
	<path d="M48.256,26.98h-1.283v-2.659h-2.606v2.659h-1.283v-6.398h1.283v2.751h2.606v-2.751h1.283V26.98z"/>
</g>
<g>
	<path d="M16.326,29.826v1.221h-0.105v-2.844h0.889c0.294,0,0.521,0.074,0.68,0.222s0.238,0.344,0.238,0.589
		c0,0.247-0.079,0.444-0.237,0.592s-0.385,0.221-0.681,0.221H16.326z M16.326,29.721h0.783c0.27,0,0.472-0.067,0.608-0.201
		s0.204-0.302,0.204-0.502c0-0.206-0.068-0.375-0.203-0.509s-0.338-0.2-0.609-0.2h-0.783V29.721z"/>
	<path d="M18.719,29.713v1.336h-0.105v-2.844h0.926c0.299,0,0.53,0.064,0.691,0.194s0.242,0.318,0.242,0.567
		c0,0.16-0.051,0.306-0.153,0.437s-0.242,0.216-0.419,0.255c0.205,0.035,0.351,0.11,0.439,0.225s0.133,0.261,0.133,0.439v0.268
		c0,0.089,0.011,0.168,0.032,0.238s0.057,0.128,0.106,0.172v0.049h-0.104c-0.047-0.054-0.082-0.119-0.105-0.198
		s-0.035-0.167-0.035-0.265v-0.26c0-0.192-0.066-0.343-0.198-0.451s-0.321-0.162-0.565-0.162H18.719z M18.719,29.607h0.801
		c0.291,0,0.504-0.062,0.642-0.184s0.206-0.274,0.206-0.457c0-0.212-0.069-0.375-0.208-0.487s-0.345-0.169-0.62-0.169h-0.82V29.607z
		"/>
	<path d="M22.76,29.617h-1.367v1.324h1.566v0.105h-1.672v-2.844h1.672v0.105h-1.566v1.203h1.367V29.617z"/>
	<path d="M24.822,30.879h0.012l1.188-2.676h0.119v2.844h-0.105v-2.584l-0.012-0.002l-1.152,2.586h-0.084l-1.178-2.643l-0.012,0.002
		v2.641h-0.105v-2.844h0.146L24.822,30.879z"/>
	<path d="M27.105,31.047H27v-2.844h0.105V31.047z"/>
	<path d="M29.879,28.203v1.889c0,0.312-0.091,0.557-0.271,0.732s-0.414,0.264-0.699,0.264c-0.286,0-0.521-0.088-0.701-0.265
		s-0.271-0.42-0.271-0.731v-1.889h0.105v1.889c0,0.27,0.082,0.485,0.245,0.647s0.371,0.243,0.622,0.243
		c0.25,0,0.457-0.081,0.62-0.243s0.245-0.378,0.245-0.647v-1.889H29.879z"/>
	<path d="M31.961,30.879h0.012l1.188-2.676h0.119v2.844h-0.105v-2.584l-0.012-0.002l-1.152,2.586h-0.084l-1.178-2.643l-0.012,0.002
		v2.641h-0.105v-2.844h0.146L31.961,30.879z"/>
</g>
</svg>
